Radley-Italic.ufo
<glyph name="quotedbl" format="1">
  <advance width="733"/>
  <unicode hex="0022"/>
  <outline>
    <contour>
      <point x="494" y="781" type="curve"/>
      <point x="496" y="781" type="line"/>
      <point x="496" y="781"/>
      <point x="495" y="782"/>
      <point x="495" y="783" type="curve"/>
      <point x="495" y="782"/>
      <point x="494" y="781"/>
    </contour>
    <contour>
      <point x="180" y="782" type="curve"/>
      <point x="182" y="781" type="line" smooth="yes"/>
      <point x="182" y="782"/>
      <point x="181" y="783"/>
      <point x="181" y="784" type="curve"/>
      <point x="181" y="783"/>
      <point x="180" y="782"/>
    </contour>
    <contour>
      <point x="490" y="927" type="curve" smooth="yes"/>
      <point x="490" y="1116"/>
      <point x="470" y="1286"/>
      <point x="610" y="1286" type="curve" smooth="yes"/>
      <point x="657" y="1286"/>
      <point x="677" y="1266"/>
      <point x="677" y="1231" type="curve" smooth="yes"/>
      <point x="677" y="1183"/>
      <point x="566" y="868"/>
      <point x="495" y="783" type="curve"/>
      <point x="491" y="818"/>
      <point x="490" y="871"/>
    </contour>
    <contour>
      <point x="176" y="927" type="curve" smooth="yes"/>
      <point x="176" y="1117"/>
      <point x="154" y="1285"/>
      <point x="295" y="1285" type="curve" smooth="yes"/>
      <point x="342" y="1285"/>
      <point x="362" y="1265"/>
      <point x="362" y="1230" type="curve" smooth="yes"/>
      <point x="362" y="1142"/>
      <point x="239" y="854"/>
      <point x="181" y="784" type="curve"/>
      <point x="177" y="819"/>
      <point x="176" y="870"/>
    </contour>
  </outline>
</glyph>
<glyph name="parenleft" format="1">
  <advance width="636"/>
  <unicode hex="0028"/>
  <outline>
    <contour>
      <point x="679" y="1264" type="curve"/>
      <point x="678" y="1264" type="line"/>
      <point x="396" y="965"/>
      <point x="266" y="613"/>
      <point x="266" y="240" type="curve" smooth="yes"/>
      <point x="266" y="80"/>
      <point x="292" y="-86"/>
      <point x="338" y="-249" type="curve"/>
      <point x="320" y="-260"/>
      <point x="303" y="-268"/>
      <point x="292" y="-268" type="curve" smooth="yes"/>
      <point x="289" y="-268"/>
      <point x="284" y="-267"/>
      <point x="282" y="-264" type="curve" smooth="yes"/>
      <point x="178" y="-140"/>
      <point x="93" y="98"/>
      <point x="93" y="363" type="curve" smooth="yes"/>
      <point x="93" y="696"/>
      <point x="229" y="1068"/>
      <point x="638" y="1312" type="curve" smooth="yes"/>
      <point x="639" y="1312"/>
      <point x="640" y="1313"/>
      <point x="641" y="1313" type="curve" smooth="yes"/>
      <point x="647" y="1313"/>
      <point x="668" y="1286"/>
    </contour>
  </outline>
</glyph>
<glyph name="asterisk" format="1">
  <advance width="1134"/>
  <unicode hex="002A"/>
  <outline>
    <contour>
      <point x="780" y="1224" type="curve"/>
      <point x="783" y="1226" type="line"/>
      <point x="753" y="1077"/>
      <point x="637" y="789"/>
      <point x="637" y="789" type="curve"/>
      <point x="637" y="789"/>
      <point x="1043" y="993"/>
      <point x="1096" y="993" type="curve" smooth="yes"/>
      <point x="1130" y="993"/>
      <point x="1151" y="965"/>
      <point x="1151" y="933" type="curve" smooth="yes"/>
      <point x="1151" y="888"/>
      <point x="1114" y="850"/>
      <point x="1071" y="841" type="curve" smooth="yes"/>
      <point x="649" y="753" type="line"/>
      <point x="649" y="753"/>
      <point x="869" y="476"/>
      <point x="869" y="400" type="curve" smooth="yes"/>
      <point x="869" y="356"/>
      <point x="810" y="312"/>
      <point x="769" y="312" type="curve" smooth="yes"/>
      <point x="745" y="312"/>
      <point x="722" y="327"/>
      <point x="715" y="351" type="curve" smooth="yes"/>
      <point x="605" y="734" type="line"/>
      <point x="605" y="734"/>
      <point x="354" y="312"/>
      <point x="259" y="312" type="curve" smooth="yes"/>
      <point x="226" y="312"/>
      <point x="196" y="338"/>
      <point x="196" y="372" type="curve" smooth="yes"/>
      <point x="196" y="449"/>
      <point x="572" y="750"/>
      <point x="572" y="750" type="curve"/>
      <point x="176" y="841" type="line" smooth="yes"/>
      <point x="152" y="847"/>
      <point x="134" y="870"/>
      <point x="134" y="895" type="curve" smooth="yes"/>
      <point x="134" y="941"/>
      <point x="185" y="992"/>
      <point x="231" y="992" type="curve" smooth="yes"/>
      <point x="282" y="992"/>
      <point x="595" y="792"/>
      <point x="595" y="792" type="curve"/>
      <point x="595" y="792"/>
      <point x="594" y="1088"/>
      <point x="629" y="1222" type="curve" smooth="yes"/>
      <point x="640" y="1263"/>
      <point x="682" y="1292"/>
      <point x="724" y="1292" type="curve" smooth="yes"/>
      <point x="762" y="1292"/>
      <point x="791" y="1262"/>
    </contour>
  </outline>
</glyph>
<glyph name="plus" format="1">
  <advance width="914"/>
  <unicode hex="002B"/>
  <outline>
    <contour>
      <point x="26" y="605" type="curve"/>
      <point x="25" y="608" type="line"/>
      <point x="70" y="622"/>
      <point x="112" y="625"/>
      <point x="199" y="625" type="curve" smooth="yes"/>
      <point x="404" y="625" type="line"/>
      <point x="446" y="828" type="line" smooth="yes"/>
      <point x="461" y="900"/>
      <point x="467" y="967"/>
      <point x="490" y="1000" type="curve" smooth="yes"/>
      <point x="498" y="1012"/>
      <point x="520" y="1001"/>
      <point x="537" y="1001" type="curve" smooth="yes"/>
      <point x="551" y="1001"/>
      <point x="566" y="1001"/>
      <point x="576" y="1000" type="curve"/>
      <point x="571" y="954"/>
      <point x="561" y="904"/>
      <point x="547" y="836" type="curve" smooth="yes"/>
      <point x="504" y="624" type="line"/>
      <point x="714" y="624" type="line" smooth="yes"/>
      <point x="782" y="624"/>
      <point x="838" y="621"/>
      <point x="877" y="616" type="curve"/>
      <point x="874" y="586"/>
      <point x="879" y="540"/>
      <point x="859" y="529" type="curve" smooth="yes"/>
      <point x="824" y="510"/>
      <point x="759" y="523"/>
      <point x="687" y="523" type="curve" smooth="yes"/>
      <point x="484" y="523" type="line"/>
      <point x="443" y="319" type="line"/>
      <point x="427" y="248"/>
      <point x="420" y="181"/>
      <point x="397" y="148" type="curve" smooth="yes"/>
      <point x="388" y="136"/>
      <point x="367" y="147"/>
      <point x="351" y="147" type="curve" smooth="yes"/>
      <point x="337" y="147"/>
      <point x="321" y="148"/>
      <point x="310" y="149" type="curve"/>
      <point x="316" y="195"/>
      <point x="327" y="244"/>
      <point x="341" y="313" type="curve" smooth="yes"/>
      <point x="383" y="523" type="line"/>
      <point x="45" y="523" type="line"/>
      <point x="25" y="538"/>
      <point x="21" y="549"/>
      <point x="21" y="568" type="curve" smooth="yes"/>
      <point x="21" y="577"/>
      <point x="23" y="591"/>
    </contour>
  </outline>
</glyph>
<glyph name="question" format="1">
  <advance width="806"/>
  <unicode hex="003F"/>
  <outline>
    <contour>
      <point x="354" y="236" type="curve" smooth="yes"/>
      <point x="286" y="236"/>
      <point x="218" y="178"/>
      <point x="204" y="111" type="curve" smooth="yes"/>
      <point x="190" y="45"/>
      <point x="234" y="-13"/>
      <point x="301" y="-13" type="curve" smooth="yes"/>
      <point x="368" y="-13"/>
      <point x="439" y="43"/>
      <point x="453" y="111" type="curve" smooth="yes"/>
      <point x="468" y="179"/>
      <point x="422" y="236"/>
    </contour>
    <contour>
      <point x="414" y="358" type="line"/>
      <point x="422" y="397" type="line" smooth="yes"/>
      <point x="475" y="649"/>
      <point x="860" y="613"/>
      <point x="936" y="970" type="curve" smooth="yes"/>
      <point x="976" y="1161"/>
      <point x="800" y="1329"/>
      <point x="606" y="1329" type="curve" smooth="yes"/>
      <point x="501" y="1329"/>
      <point x="343" y="1294"/>
      <point x="318" y="1179" type="curve" smooth="yes"/>
      <point x="309" y="1138"/>
      <point x="332" y="1096"/>
      <point x="376" y="1096" type="curve" smooth="yes"/>
      <point x="464" y="1096"/>
      <point x="521" y="1218"/>
      <point x="610" y="1218" type="curve" smooth="yes"/>
      <point x="734" y="1218"/>
      <point x="828" y="1110"/>
      <point x="802" y="984" type="curve" smooth="yes"/>
      <point x="753" y="756"/>
      <point x="371" y="690"/>
      <point x="347" y="576" type="curve" smooth="yes"/>
      <point x="331" y="502"/>
      <point x="341" y="431"/>
      <point x="333" y="358" type="curve"/>
    </contour>
  </outline>
</glyph>
<glyph name="E" format="1">
  <advance width="1144"/>
  <unicode hex="0045"/>
  <outline>
    <contour>
      <point x="694" y="1264" type="move" name="top"/>
    </contour>
    <contour>
      <point x="566" y="0" type="move" name="bot"/>
    </contour>
    <contour>
      <point x="192" y="1190" type="curve"/>
      <point x="190" y="1195"/>
      <point x="185" y="1205"/>
      <point x="185" y="1211" type="curve" smooth="yes"/>
      <point x="185" y="1230"/>
      <point x="194" y="1250"/>
      <point x="206" y="1264" type="curve"/>
      <point x="1191" y="1264" type="line"/>
      <point x="1192" y="969" type="line"/>
      <point x="1176" y="955"/>
      <point x="1154" y="943"/>
      <point x="1132" y="943" type="curve" smooth="yes"/>
      <point x="1117" y="943"/>
      <point x="1101" y="951"/>
      <point x="1090" y="961" type="curve"/>
      <point x="1067" y="1054"/>
      <point x="1049" y="1190"/>
      <point x="925" y="1190" type="curve" smooth="yes"/>
      <point x="591" y="1190" type="line" smooth="yes"/>
      <point x="544" y="1190"/>
      <point x="525" y="1149"/>
      <point x="516" y="1110" type="curve" smooth="yes"/>
      <point x="421" y="703" type="line"/>
      <point x="726" y="703" type="line" smooth="yes"/>
      <point x="854" y="703"/>
      <point x="826" y="826"/>
      <point x="949" y="826" type="curve"/>
      <point x="857" y="476" type="line"/>
      <point x="811" y="476" type="line"/>
      <point x="805" y="533"/>
      <point x="783" y="628"/>
      <point x="710" y="628" type="curve" smooth="yes"/>
      <point x="404" y="628" type="line"/>
      <point x="369" y="467"/>
      <point x="298" y="294"/>
      <point x="298" y="128" type="curve" smooth="yes"/>
      <point x="298" y="104"/>
      <point x="318" y="88"/>
      <point x="349" y="88" type="curve" smooth="yes"/>
      <point x="673" y="88" type="line" smooth="yes"/>
      <point x="814" y="88"/>
      <point x="925" y="164"/>
      <point x="959" y="296" type="curve"/>
      <point x="989" y="309"/>
      <point x="1013" y="313"/>
      <point x="1033" y="313" type="curve" smooth="yes"/>
      <point x="1054" y="313"/>
      <point x="1072" y="308"/>
      <point x="1088" y="305" type="curve"/>
      <point x="976" y="0" type="line"/>
      <point x="-53" y="0" type="line"/>
      <point x="-60" y="19" type="line"/>
      <point x="-60" y="39"/>
      <point x="-52" y="59"/>
      <point x="-39" y="75" type="curve"/>
      <point x="65" y="75"/>
      <point x="114" y="115"/>
      <point x="139" y="215" type="curve" smooth="yes"/>
      <point x="197" y="453"/>
      <point x="334" y="870"/>
      <point x="334" y="1098" type="curve" smooth="yes"/>
      <point x="334" y="1181"/>
      <point x="254" y="1188"/>
    </contour>
  </outline>
</glyph>
<glyph name="G" format="1">
  <advance width="1304"/>
  <unicode hex="0047"/>
  <outline>
    <contour>
      <point x="699" y="1264" type="move" name="top"/>
    </contour>
    <contour>
      <point x="699" y="0" type="move" name="bot"/>
    </contour>
    <contour>
      <point x="1038" y="92" type="curve"/>
      <point x="921" y="12"/>
      <point x="782" y="-34"/>
      <point x="640" y="-34" type="curve" smooth="yes"/>
      <point x="280" y="-34"/>
      <point x="101" y="253"/>
      <point x="101" y="586" type="curve" smooth="yes"/>
      <point x="101" y="956"/>
      <point x="411" y="1301"/>
      <point x="789" y="1301" type="curve" smooth="yes"/>
      <point x="993" y="1301"/>
      <point x="1228" y="1191"/>
      <point x="1228" y="958" type="curve" smooth="yes"/>
      <point x="1228" y="914"/>
      <point x="1198" y="874"/>
      <point x="1151" y="874" type="curve" smooth="yes"/>
      <point x="1010" y="874"/>
      <point x="1134" y="1199"/>
      <point x="794" y="1199" type="curve" smooth="yes"/>
      <point x="480" y="1199"/>
      <point x="295" y="815"/>
      <point x="295" y="543" type="curve" smooth="yes"/>
      <point x="295" y="333"/>
      <point x="413" y="74"/>
      <point x="656" y="74" type="curve" smooth="yes"/>
      <point x="738" y="74"/>
      <point x="819" y="94"/>
      <point x="887" y="139" type="curve"/>
      <point x="915" y="229"/>
      <point x="950" y="336"/>
      <point x="950" y="431" type="curve" smooth="yes"/>
      <point x="950" y="511"/>
      <point x="864" y="528"/>
      <point x="800" y="531" type="curve"/>
      <point x="816" y="607" type="line"/>
      <point x="1297" y="607" type="line"/>
      <point x="1274" y="531" type="line"/>
      <point x="1110" y="530"/>
      <point x="1073" y="209"/>
    </contour>
  </outline>
</glyph>
<glyph name="H" format="1">
  <advance width="1347"/>
  <unicode hex="0048"/>
  <outline>
    <contour>
      <point x="710" y="1264" type="move" name="top"/>
    </contour>
    <contour>
      <point x="694" y="19" type="line"/>
      <point x="714" y="74" type="line"/>
      <point x="823" y="74"/>
      <point x="874" y="109"/>
      <point x="900" y="217" type="curve" smooth="yes"/>
      <point x="998" y="632" type="line"/>
      <point x="427" y="632" type="line"/>
      <point x="391" y="483"/>
      <point x="321" y="317"/>
      <point x="321" y="164" type="curve" smooth="yes"/>
      <point x="321" y="79"/>
      <point x="418" y="77"/>
      <point x="480" y="74" type="curve"/>
      <point x="481" y="65"/>
      <point x="484" y="54"/>
      <point x="484" y="45" type="curve" smooth="yes"/>
      <point x="484" y="29"/>
      <point x="480" y="12"/>
      <point x="468" y="0" type="curve"/>
      <point x="-53" y="0" type="line"/>
      <point x="-60" y="19" type="line"/>
      <point x="-39" y="75" type="line"/>
      <point x="70" y="75"/>
      <point x="127" y="107"/>
      <point x="154" y="216" type="curve" smooth="yes"/>
      <point x="211" y="446"/>
      <point x="353" y="889"/>
      <point x="353" y="1105" type="curve" smooth="yes"/>
      <point x="353" y="1187"/>
      <point x="253" y="1188"/>
      <point x="194" y="1190" type="curve"/>
      <point x="193" y="1200"/>
      <point x="190" y="1209"/>
      <point x="190" y="1219" type="curve" smooth="yes"/>
      <point x="190" y="1235"/>
      <point x="194" y="1252"/>
      <point x="206" y="1264" type="curve"/>
      <point x="719" y="1264" type="line"/>
      <point x="721" y="1259"/>
      <point x="726" y="1250"/>
      <point x="726" y="1244" type="curve" smooth="yes"/>
      <point x="726" y="1224"/>
      <point x="717" y="1206"/>
      <point x="706" y="1190" type="curve"/>
      <point x="597" y="1190"/>
      <point x="545" y="1154"/>
      <point x="520" y="1046" type="curve" smooth="yes"/>
      <point x="439" y="691" type="line"/>
      <point x="1010" y="691" type="line"/>
      <point x="1041" y="825"/>
      <point x="1099" y="963"/>
      <point x="1099" y="1102" type="curve" smooth="yes"/>
      <point x="1099" y="1186"/>
      <point x="1001" y="1187"/>
      <point x="940" y="1189" type="curve"/>
      <point x="939" y="1199"/>
      <point x="936" y="1209"/>
      <point x="936" y="1219" type="curve" smooth="yes"/>
      <point x="936" y="1235"/>
      <point x="940" y="1252"/>
      <point x="952" y="1264" type="curve"/>
      <point x="1473" y="1264" type="line"/>
      <point x="1481" y="1244" type="line"/>
      <point x="1460" y="1188" type="line"/>
      <point x="1349" y="1188"/>
      <point x="1294" y="1158"/>
      <point x="1267" y="1047" type="curve" smooth="yes"/>
      <point x="1221" y="860"/>
      <point x="1067" y="316"/>
      <point x="1067" y="162" type="curve" smooth="yes"/>
      <point x="1067" y="79"/>
      <point x="1165" y="77"/>
      <point x="1226" y="74" type="curve"/>
      <point x="1228" y="65"/>
      <point x="1231" y="54"/>
      <point x="1231" y="44" type="curve" smooth="yes"/>
      <point x="1231" y="28"/>
      <point x="1227" y="11"/>
      <point x="1215" y="0" type="curve"/>
      <point x="702" y="0" type="line"/>
    </contour>
  </outline>
</glyph>
<glyph name="J" format="1">
  <advance width="757"/>
  <unicode hex="004A"/>
  <outline>
    <contour>
      <point x="339" y="1264" type="move" name="top"/>
    </contour>
    <contour>
      <point x="522" y="1101" type="curve" smooth="yes"/>
      <point x="522" y="1181"/>
      <point x="439" y="1188"/>
      <point x="377" y="1190" type="curve"/>
      <point x="374" y="1199"/>
      <point x="373" y="1209"/>
      <point x="373" y="1219" type="curve" smooth="yes"/>
      <point x="373" y="1232"/>
      <point x="376" y="1254"/>
      <point x="388" y="1264" type="curve"/>
      <point x="884" y="1264" type="line" smooth="yes"/>
      <point x="891" y="1264"/>
      <point x="891" y="1244"/>
      <point x="891" y="1244" type="curve"/>
      <point x="891" y="1225"/>
      <point x="882" y="1205"/>
      <point x="870" y="1190" type="curve"/>
      <point x="763" y="1190"/>
      <point x="699" y="1162"/>
      <point x="677" y="1047" type="curve" smooth="yes"/>
      <point x="526" y="260" type="line" smooth="yes"/>
      <point x="477" y="5"/>
      <point x="383" y="-267"/>
      <point x="77" y="-267" type="curve" smooth="yes"/>
      <point x="-5" y="-267"/>
      <point x="-213" y="-232"/>
      <point x="-213" y="-122" type="curve" smooth="yes"/>
      <point x="-213" y="-71"/>
      <point x="-173" y="-46"/>
      <point x="-126" y="-46" type="curve" smooth="yes"/>
      <point x="-48" y="-46"/>
      <point x="29" y="-176"/>
      <point x="119" y="-176" type="curve" smooth="yes"/>
      <point x="256" y="-176"/>
      <point x="299" y="25"/>
      <point x="321" y="128" type="curve" smooth="yes"/>
      <point x="517" y="1061" type="line" smooth="yes"/>
      <point x="520" y="1074"/>
      <point x="522" y="1088"/>
    </contour>
  </outline>
</glyph>
<glyph name="K" format="1">
  <advance width="1345"/>
  <unicode hex="004B"/>
  <outline>
    <contour>
      <point x="660" y="1264" type="move" name="top"/>
    </contour>
    <contour>
      <point x="660" y="0" type="move" name="bot"/>
    </contour>
    <contour>
      <point x="419" y="580" type="curve"/>
      <point x="628" y="724" type="line"/>
      <point x="663" y="652"/>
      <point x="906" y="168"/>
      <point x="906" y="139" type="curve" smooth="yes"/>
      <point x="906" y="94"/>
      <point x="837" y="77"/>
      <point x="802" y="74" type="curve"/>
      <point x="781" y="0" type="line"/>
      <point x="1221" y="0" type="line"/>
      <point x="1235" y="75" type="line"/>
      <point x="1151" y="79"/>
      <point x="1114" y="129"/>
      <point x="1076" y="197" type="curve" smooth="yes"/>
      <point x="1036" y="269"/>
      <point x="775" y="703"/>
      <point x="775" y="759" type="curve" smooth="yes"/>
      <point x="775" y="848"/>
      <point x="1251" y="1181"/>
      <point x="1357" y="1190" type="curve"/>
      <point x="1380" y="1264" type="line"/>
      <point x="868" y="1264" type="line"/>
      <point x="852" y="1189" type="line"/>
      <point x="894" y="1185"/>
      <point x="950" y="1160"/>
      <point x="950" y="1110" type="curve" smooth="yes"/>
      <point x="950" y="1036"/>
      <point x="519" y="748"/>
      <point x="444" y="691" type="curve"/>
      <point x="518" y="1046" type="line" smooth="yes"/>
      <point x="539" y="1146"/>
      <point x="596" y="1189"/>
      <point x="697" y="1190" type="curve"/>
      <point x="719" y="1264" type="line"/>
      <point x="201" y="1264" type="line"/>
      <point x="192" y="1251"/>
      <point x="189" y="1235"/>
      <point x="189" y="1219" type="curve" smooth="yes"/>
      <point x="189" y="1210"/>
      <point x="192" y="1199"/>
      <point x="193" y="1190" type="curve"/>
      <point x="264" y="1187"/>
      <point x="349" y="1176"/>
      <point x="349" y="1086" type="curve" smooth="yes"/>
      <point x="349" y="972"/>
      <point x="198" y="370"/>
      <point x="160" y="216" type="curve" smooth="yes"/>
      <point x="133" y="106"/>
      <point x="71" y="75"/>
      <point x="-38" y="75" type="curve"/>
      <point x="-60" y="19" type="line"/>
      <point x="-52" y="0" type="line"/>
      <point x="464" y="0" type="line"/>
      <point x="478" y="75" type="line"/>
      <point x="416" y="77"/>
      <point x="331" y="91"/>
      <point x="331" y="170" type="curve" smooth="yes"/>
      <point x="331" y="307"/>
      <point x="389" y="447"/>
    </contour>
  </outline>
</glyph>
<glyph name="L" format="1">
  <advance width="997"/>
  <unicode hex="004C"/>
  <outline>
    <contour>
      <point x="459" y="1264" type="move" name="top"/>
    </contour>
    <contour>
      <point x="885" y="310" type="curve" smooth="yes"/>
      <point x="916" y="310"/>
      <point x="948" y="310"/>
      <point x="979" y="304" type="curve"/>
      <point x="866" y="0" type="line"/>
      <point x="-52" y="0" type="line"/>
      <point x="-60" y="18" type="line"/>
      <point x="-39" y="73" type="line"/>
      <point x="71" y="73"/>
      <point x="131" y="104"/>
      <point x="159" y="214" type="curve" smooth="yes"/>
      <point x="196" y="359"/>
      <point x="346" y="977"/>
      <point x="346" y="1083" type="curve" smooth="yes"/>
      <point x="346" y="1173"/>
      <point x="263" y="1188"/>
      <point x="192" y="1190" type="curve"/>
      <point x="190" y="1199"/>
      <point x="187" y="1208"/>
      <point x="187" y="1218" type="curve" smooth="yes"/>
      <point x="187" y="1235"/>
      <point x="190" y="1252"/>
      <point x="203" y="1264" type="curve"/>
      <point x="739" y="1264" type="line"/>
      <point x="717" y="1190" type="line"/>
      <point x="610" y="1189"/>
      <point x="540" y="1157"/>
      <point x="512" y="1048" type="curve" smooth="yes"/>
      <point x="478" y="919"/>
      <point x="314" y="212"/>
      <point x="314" y="130" type="curve" smooth="yes"/>
      <point x="314" y="74"/>
      <point x="441" y="74"/>
      <point x="478" y="74" type="curve" smooth="yes"/>
      <point x="659" y="74"/>
      <point x="798" y="99"/>
      <point x="852" y="296" type="curve" smooth="yes"/>
      <point x="852" y="298" type="line"/>
      <point x="857" y="300"/>
      <point x="881" y="310"/>
    </contour>
  </outline>
</glyph>
<glyph name="U" format="1">
  <advance width="1329"/>
  <unicode hex="0055"/>
  <outline>
    <contour>
      <point x="803" y="1264" type="move" name="top"/>
    </contour>
    <contour>
      <point x="803" y="0" type="move" name="bot"/>
    </contour>
    <contour>
      <point x="684" y="1244" type="line"/>
      <point x="664" y="1190" type="line"/>
      <point x="552" y="1190"/>
      <point x="504" y="1156"/>
      <point x="479" y="1046" type="curve" smooth="yes"/>
      <point x="365" y="551" type="line" smooth="yes"/>
      <point x="357" y="518"/>
      <point x="353" y="483"/>
      <point x="353" y="449" type="curve" smooth="yes"/>
      <point x="353" y="275"/>
      <point x="451" y="102"/>
      <point x="648" y="102" type="curve" smooth="yes"/>
      <point x="863" y="102"/>
      <point x="973" y="311"/>
      <point x="1014" y="495" type="curve" smooth="yes"/>
      <point x="1125" y="992" type="line" smooth="yes"/>
      <point x="1134" y="1035"/>
      <point x="1137" y="1075"/>
      <point x="1137" y="1102" type="curve" smooth="yes"/>
      <point x="1137" y="1185"/>
      <point x="1041" y="1189"/>
      <point x="980" y="1190" type="curve"/>
      <point x="979" y="1200"/>
      <point x="976" y="1209"/>
      <point x="976" y="1219" type="curve" smooth="yes"/>
      <point x="976" y="1234"/>
      <point x="982" y="1252"/>
      <point x="992" y="1264" type="curve"/>
      <point x="1457" y="1264" type="line"/>
      <point x="1465" y="1244" type="line"/>
      <point x="1444" y="1190" type="line"/>
      <point x="1332" y="1190"/>
      <point x="1278" y="1158"/>
      <point x="1251" y="1045" type="curve"/>
      <point x="1123" y="485" type="line" smooth="yes"/>
      <point x="1058" y="203"/>
      <point x="892" y="-34"/>
      <point x="586" y="-34" type="curve" smooth="yes"/>
      <point x="323" y="-34"/>
      <point x="175" y="187"/>
      <point x="175" y="423" type="curve" smooth="yes"/>
      <point x="175" y="468"/>
      <point x="180" y="513"/>
      <point x="191" y="558" type="curve" smooth="yes"/>
      <point x="308" y="1037" type="line"/>
      <point x="311" y="1052"/>
      <point x="313" y="1065"/>
      <point x="313" y="1078" type="curve" smooth="yes"/>
      <point x="313" y="1153"/>
      <point x="255" y="1190"/>
      <point x="177" y="1190" type="curve"/>
      <point x="146" y="1190" type="line"/>
      <point x="145" y="1200"/>
      <point x="142" y="1209"/>
      <point x="142" y="1219" type="curve" smooth="yes"/>
      <point x="142" y="1234"/>
      <point x="148" y="1252"/>
      <point x="158" y="1264" type="curve"/>
      <point x="676" y="1264" type="line"/>
    </contour>
  </outline>
</glyph>
<glyph name="bracketright" format="1">
  <advance width="849"/>
  <unicode hex="005D"/>
  <outline>
    <contour>
      <point x="-5" y="-197" type="curve" smooth="yes"/>
      <point x="-6" y="-197" type="line" smooth="yes"/>
      <point x="-49" y="-197"/>
      <point x="-64" y="-189"/>
      <point x="-64" y="-164" type="curve" smooth="yes"/>
      <point x="-64" y="-84"/>
      <point x="23" y="-71"/>
      <point x="85" y="-71" type="curve" smooth="yes"/>
      <point x="133" y="-71"/>
      <point x="179" y="-80"/>
      <point x="231" y="-80" type="curve" smooth="yes"/>
      <point x="390" y="-80" type="line"/>
      <point x="437" y="122"/>
      <point x="480" y="326"/>
      <point x="523" y="528" type="curve" smooth="yes"/>
      <point x="584" y="819"/>
      <point x="630" y="1107"/>
      <point x="688" y="1396" type="curve"/>
      <point x="261" y="1396" type="line" smooth="yes"/>
      <point x="231" y="1396"/>
      <point x="211" y="1414"/>
      <point x="211" y="1441" type="curve" smooth="yes"/>
      <point x="211" y="1489"/>
      <point x="265" y="1511"/>
      <point x="310" y="1511" type="curve" smooth="yes"/>
      <point x="462" y="1511"/>
      <point x="615" y="1506"/>
      <point x="767" y="1506" type="curve" smooth="yes"/>
      <point x="795" y="1506"/>
      <point x="821" y="1471"/>
      <point x="821" y="1451" type="curve" smooth="yes"/>
      <point x="821" y="1110"/>
      <point x="673" y="779"/>
      <point x="601" y="444" type="curve" smooth="yes"/>
      <point x="505" y="-5"/>
      <point x="527" y="-182"/>
      <point x="423" y="-182" type="curve" smooth="yes"/>
      <point x="280" y="-182"/>
      <point x="133" y="-197"/>
    </contour>
  </outline>
</glyph>
<glyph name="grave" format="1">
  <advance width="552"/>
  <unicode hex="0060"/>
  <outline>
    <contour>
      <point x="346" y="871" type="move" name="_top"/>
    </contour>
    <contour>
      <point x="307" y="1337" type="curve"/>
      <point x="305" y="1337" type="line"/>
      <point x="298" y="1344"/>
      <point x="297" y="1349"/>
      <point x="297" y="1358" type="curve" smooth="yes"/>
      <point x="297" y="1390"/>
      <point x="342" y="1436"/>
      <point x="379" y="1436" type="curve" smooth="yes"/>
      <point x="394" y="1436"/>
      <point x="408" y="1430"/>
      <point x="418" y="1411" type="curve" smooth="yes"/>
      <point x="464" y="1325"/>
      <point x="568" y="1136"/>
      <point x="625" y="1029" type="curve" smooth="yes"/>
      <point x="629" y="1021"/>
      <point x="629" y="1016"/>
      <point x="629" y="1011" type="curve" smooth="yes"/>
      <point x="629" y="1001"/>
      <point x="623" y="997"/>
      <point x="618" y="997" type="curve" smooth="yes"/>
      <point x="613" y="997"/>
      <point x="603" y="999"/>
      <point x="593" y="1011" type="curve" smooth="yes"/>
      <point x="538" y="1071"/>
      <point x="390" y="1244"/>
    </contour>
  </outline>
</glyph>
<glyph name="e" format="1">
  <advance width="911"/>
  <unicode hex="0065"/>
  <outline>
    <contour>
      <point x="537" y="872" type="move" name="top"/>
    </contour>
    <contour>
      <point x="461" y="0" type="move" name="bot"/>
    </contour>
    <contour>
      <point x="249" y="422" type="curve"/>
      <point x="264" y="421"/>
      <point x="269" y="420"/>
      <point x="288" y="420" type="curve" smooth="yes"/>
      <point x="404" y="420"/>
      <point x="686" y="496"/>
      <point x="686" y="668" type="curve" smooth="yes"/>
      <point x="686" y="755"/>
      <point x="617" y="818"/>
      <point x="545" y="818" type="curve" smooth="yes"/>
      <point x="357" y="818"/>
      <point x="259" y="581"/>
    </contour>
    <contour>
      <point x="826" y="641" type="curve" smooth="yes"/>
      <point x="826" y="393"/>
      <point x="413" y="359"/>
      <point x="248" y="348" type="curve"/>
      <point x="248" y="333"/>
      <point x="247" y="326"/>
      <point x="247" y="310" type="curve" smooth="yes"/>
      <point x="247" y="197"/>
      <point x="340" y="79"/>
      <point x="465" y="79" type="curve" smooth="yes"/>
      <point x="613" y="79"/>
      <point x="702" y="183"/>
      <point x="781" y="282" type="curve"/>
      <point x="851" y="237" type="line"/>
      <point x="753" y="101"/>
      <point x="612" y="-19"/>
      <point x="450" y="-19" type="curve" smooth="yes"/>
      <point x="242" y="-19"/>
      <point x="71" y="167"/>
      <point x="71" y="397" type="curve" smooth="yes"/>
      <point x="71" y="672"/>
      <point x="293" y="891"/>
      <point x="544" y="891" type="curve" smooth="yes"/>
      <point x="671" y="891"/>
      <point x="826" y="811"/>
    </contour>
  </outline>
</glyph>
<glyph name="g" format="1">
  <advance width="980"/>
  <unicode hex="0067"/>
  <outline>
    <contour>
      <point x="402" y="-289" type="curve" smooth="yes"/>
      <point x="453" y="-289"/>
      <point x="669" y="-292"/>
      <point x="669" y="-186" type="curve" smooth="yes"/>
      <point x="669" y="-92"/>
      <point x="296" y="-27"/>
      <point x="234" y="-16" type="curve"/>
      <point x="227" y="-16"/>
      <point x="67" y="-59"/>
      <point x="67" y="-167" type="curve"/>
      <point x="85" y="-293"/>
      <point x="307" y="-289"/>
    </contour>
    <contour>
      <point x="474" y="299" type="curve" smooth="yes"/>
      <point x="603" y="299"/>
      <point x="672" y="453"/>
      <point x="672" y="588" type="curve" smooth="yes"/>
      <point x="672" y="704"/>
      <point x="619" y="823"/>
      <point x="489" y="823" type="curve" smooth="yes"/>
      <point x="363" y="823"/>
      <point x="290" y="669"/>
      <point x="290" y="536" type="curve" smooth="yes"/>
      <point x="290" y="418"/>
      <point x="344" y="299"/>
    </contour>
    <contour>
      <point x="-72" y="-162" type="curve"/>
      <point x="-72" y="-48"/>
      <point x="94" y="-24"/>
      <point x="215" y="2" type="curve"/>
      <point x="120" y="40" type="line" smooth="yes"/>
      <point x="78" y="57"/>
      <point x="53" y="92"/>
      <point x="53" y="126" type="curve" smooth="yes"/>
      <point x="53" y="174"/>
      <point x="106" y="245"/>
      <point x="256" y="288" type="curve" smooth="yes"/>
      <point x="284" y="296" type="line"/>
      <point x="262" y="317" type="line" smooth="yes"/>
      <point x="172" y="404"/>
      <point x="132" y="503"/>
      <point x="132" y="592" type="curve" smooth="yes"/>
      <point x="132" y="752"/>
      <point x="263" y="891"/>
      <point x="480" y="891" type="curve" smooth="yes"/>
      <point x="578" y="891"/>
      <point x="668" y="847"/>
      <point x="752" y="763" type="curve"/>
      <point x="802" y="826"/>
      <point x="873" y="897"/>
      <point x="964" y="897" type="curve" smooth="yes"/>
      <point x="1012" y="897"/>
      <point x="1063" y="857"/>
      <point x="1063" y="808" type="curve" smooth="yes"/>
      <point x="1063" y="777"/>
      <point x="1044" y="758"/>
      <point x="1007" y="758" type="curve" smooth="yes"/>
      <point x="978" y="758"/>
      <point x="942" y="792"/>
      <point x="897" y="792" type="curve" smooth="yes"/>
      <point x="857" y="792"/>
      <point x="791" y="734"/>
      <point x="791" y="734" type="curve"/>
      <point x="781" y="725" type="line"/>
      <point x="809" y="665"/>
      <point x="830" y="598"/>
      <point x="830" y="542" type="curve" smooth="yes"/>
      <point x="830" y="374"/>
      <point x="702" y="240"/>
      <point x="505" y="240" type="curve" smooth="yes"/>
      <point x="420" y="240"/>
      <point x="355" y="267"/>
      <point x="347" y="267" type="curve" smooth="yes"/>
      <point x="316" y="267"/>
      <point x="221" y="251"/>
      <point x="221" y="189" type="curve" smooth="yes"/>
      <point x="221" y="42"/>
      <point x="787" y="104"/>
      <point x="811" y="-172" type="curve"/>
      <point x="811" y="-319"/>
      <point x="580" y="-354"/>
      <point x="427" y="-354" type="curve" smooth="yes"/>
      <point x="226" y="-354"/>
      <point x="-72" y="-339"/>
    </contour>
  </outline>
</glyph>
<glyph name="i" format="1">
  <advance width="634"/>
  <unicode hex="0069"/>
  <outline>
    <contour>
      <point x="326" y="0" type="move" name="bot"/>
    </contour>
    <contour>
      <point x="371" y="1217" type="curve" smooth="yes"/>
      <point x="371" y="1281"/>
      <point x="411" y="1311"/>
      <point x="462" y="1311" type="curve" smooth="yes"/>
      <point x="518" y="1311"/>
      <point x="574" y="1273"/>
      <point x="582" y="1197" type="curve"/>
      <point x="582" y="1118"/>
      <point x="545" y="1091"/>
      <point x="497" y="1091" type="curve" smooth="yes"/>
      <point x="441" y="1091"/>
      <point x="371" y="1136"/>
    </contour>
    <contour>
      <point x="634" y="250" type="line"/>
      <point x="573" y="161" type="line" smooth="yes"/>
      <point x="512" y="73"/>
      <point x="429" y="-19"/>
      <point x="311" y="-19" type="curve" smooth="yes"/>
      <point x="213" y="-19"/>
      <point x="153" y="65"/>
      <point x="153" y="163" type="curve" smooth="yes"/>
      <point x="153" y="230"/>
      <point x="175" y="300"/>
      <point x="200" y="370" type="curve" smooth="yes"/>
      <point x="301" y="654" type="line"/>
      <point x="309" y="680"/>
      <point x="321" y="709"/>
      <point x="321" y="738" type="curve" smooth="yes"/>
      <point x="321" y="777"/>
      <point x="303" y="806"/>
      <point x="265" y="806" type="curve" smooth="yes"/>
      <point x="229" y="806"/>
      <point x="185" y="763"/>
      <point x="70" y="605" type="curve"/>
      <point x="18" y="644" type="line"/>
      <point x="120" y="782"/>
      <point x="204" y="891"/>
      <point x="322" y="891" type="curve" smooth="yes"/>
      <point x="434" y="891"/>
      <point x="468" y="818"/>
      <point x="468" y="723" type="curve" smooth="yes"/>
      <point x="468" y="674"/>
      <point x="458" y="621"/>
      <point x="444" y="577" type="curve" smooth="yes"/>
      <point x="339" y="254" type="line"/>
      <point x="331" y="235"/>
      <point x="323" y="198"/>
      <point x="323" y="163" type="curve" smooth="yes"/>
      <point x="323" y="134"/>
      <point x="331" y="91"/>
      <point x="377" y="91" type="curve" smooth="yes"/>
      <point x="418" y="91"/>
      <point x="461" y="132"/>
      <point x="512" y="209" type="curve" smooth="yes"/>
      <point x="569" y="295" type="line"/>
    </contour>
  </outline>
</glyph>
<glyph name="k" format="1">
  <advance width="1075"/>
  <unicode hex="006B"/>
  <outline>
    <contour>
      <point x="554" y="0" type="move" name="bot"/>
    </contour>
    <contour>
      <point x="815" y="687" type="curve" smooth="yes"/>
      <point x="815" y="771"/>
      <point x="731" y="800"/>
      <point x="655" y="800" type="curve" smooth="yes"/>
      <point x="574" y="800"/>
      <point x="377" y="713"/>
      <point x="377" y="713" type="curve" smooth="yes"/>
      <point x="313" y="469" type="line"/>
      <point x="342" y="466"/>
      <point x="375" y="465"/>
      <point x="409" y="465" type="curve" smooth="yes"/>
      <point x="582" y="465"/>
      <point x="815" y="523"/>
    </contour>
    <contour>
      <point x="665" y="403" type="curve"/>
      <point x="709" y="165"/>
      <point x="745" y="102"/>
      <point x="787" y="102" type="curve" smooth="yes"/>
      <point x="836" y="102"/>
      <point x="891" y="171"/>
      <point x="1006" y="318" type="curve"/>
      <point x="1069" y="266" type="line"/>
      <point x="962" y="118"/>
      <point x="866" y="-19"/>
      <point x="743" y="-19" type="curve" smooth="yes"/>
      <point x="666" y="-19"/>
      <point x="632" y="6"/>
      <point x="584" y="188" type="curve" smooth="yes"/>
      <point x="534" y="378" type="line"/>
      <point x="514" y="377"/>
      <point x="494" y="377"/>
      <point x="474" y="377" type="curve" smooth="yes"/>
      <point x="412" y="377"/>
      <point x="353" y="387"/>
      <point x="301" y="409" type="curve"/>
      <point x="246" y="175" type="line" smooth="yes"/>
      <point x="220" y="68"/>
      <point x="201" y="0"/>
      <point x="126" y="0" type="curve" smooth="yes"/>
      <point x="61" y="0"/>
      <point x="45" y="32"/>
      <point x="45" y="82" type="curve" smooth="yes"/>
      <point x="45" y="130"/>
      <point x="65" y="190"/>
      <point x="76" y="232" type="curve" smooth="yes"/>
      <point x="336" y="1213" type="line"/>
      <point x="158" y="1213" type="line" smooth="yes"/>
      <point x="132" y="1213"/>
      <point x="130" y="1219"/>
      <point x="130" y="1225" type="curve" smooth="yes"/>
      <point x="130" y="1243"/>
      <point x="148" y="1293"/>
      <point x="158" y="1294" type="curve" smooth="yes"/>
      <point x="455" y="1330" type="line" smooth="yes"/>
      <point x="462" y="1331"/>
      <point x="467" y="1331"/>
      <point x="474" y="1331" type="curve"/>
      <point x="474" y="1331"/>
      <point x="474" y="1331"/>
      <point x="475" y="1331" type="curve" smooth="yes"/>
      <point x="480" y="1331"/>
      <point x="502" y="1329"/>
      <point x="502" y="1300" type="curve" smooth="yes"/>
      <point x="502" y="1280"/>
      <point x="497" y="1252"/>
      <point x="489" y="1217" type="curve" smooth="yes"/>
      <point x="389" y="801" type="line"/>
      <point x="487" y="851"/>
      <point x="612" y="891"/>
      <point x="739" y="891" type="curve" smooth="yes"/>
      <point x="845" y="891"/>
      <point x="968" y="845"/>
      <point x="968" y="689" type="curve" smooth="yes"/>
      <point x="968" y="462"/>
      <point x="686" y="408"/>
    </contour>
  </outline>
</glyph>
<glyph name="t" format="1">
  <advance width="642"/>
  <unicode hex="0074"/>
  <outline>
    <contour>
      <point x="382" y="0" type="move" name="bot"/>
    </contour>
    <contour>
      <point x="321" y="872" type="line"/>
      <point x="353" y="954"/>
      <point x="438" y="1234"/>
      <point x="520" y="1234" type="curve" smooth="yes"/>
      <point x="550" y="1234"/>
      <point x="567" y="1203"/>
      <point x="564" y="1194" type="curve" smooth="yes"/>
      <point x="549" y="1152"/>
      <point x="455" y="883"/>
      <point x="450" y="872" type="curve"/>
      <point x="694" y="872" type="line"/>
      <point x="673" y="773" type="line"/>
      <point x="435" y="773" type="line"/>
      <point x="302" y="258" type="line" smooth="yes"/>
      <point x="295" y="231"/>
      <point x="283" y="198"/>
      <point x="283" y="167" type="curve" smooth="yes"/>
      <point x="283" y="135"/>
      <point x="290" y="89"/>
      <point x="337" y="89" type="curve" smooth="yes"/>
      <point x="373" y="89"/>
      <point x="414" y="124"/>
      <point x="460" y="203" type="curve" smooth="yes"/>
      <point x="512" y="293" type="line"/>
      <point x="577" y="248" type="line"/>
      <point x="519" y="154" type="line"/>
      <point x="460" y="67"/>
      <point x="380" y="-21"/>
      <point x="267" y="-21" type="curve" smooth="yes"/>
      <point x="149" y="-21"/>
      <point x="116" y="56"/>
      <point x="116" y="153" type="curve"/>
      <point x="117" y="154" type="line"/>
      <point x="117" y="235"/>
      <point x="139" y="322"/>
      <point x="157" y="382" type="curve" smooth="yes"/>
      <point x="273" y="774" type="line"/>
      <point x="70" y="774" type="line"/>
      <point x="99" y="872" type="line"/>
    </contour>
  </outline>
</glyph>
<glyph name="w" format="1">
  <advance width="1584"/>
  <unicode hex="0077"/>
  <outline>
    <contour>
      <point x="1000" y="656" type="curve" smooth="yes"/>
      <point x="1000" y="700"/>
      <point x="994" y="789"/>
      <point x="920" y="789" type="curve" smooth="yes"/>
      <point x="845" y="789"/>
      <point x="824" y="703"/>
      <point x="824" y="624" type="curve" smooth="yes"/>
      <point x="824" y="516"/>
      <point x="854" y="414"/>
      <point x="883" y="337" type="curve"/>
      <point x="944" y="409"/>
      <point x="1000" y="529"/>
    </contour>
    <contour>
      <point x="826" y="162" type="curve"/>
      <point x="757" y="90"/>
      <point x="632" y="-20"/>
      <point x="505" y="-20" type="curve" smooth="yes"/>
      <point x="353" y="-20"/>
      <point x="224" y="100"/>
      <point x="224" y="276" type="curve" smooth="yes"/>
      <point x="224" y="507"/>
      <point x="396" y="733"/>
      <point x="396" y="761" type="curve" smooth="yes"/>
      <point x="396" y="767"/>
      <point x="392" y="770"/>
      <point x="383" y="770" type="curve" smooth="yes"/>
      <point x="143" y="770" type="line" smooth="yes"/>
      <point x="128" y="770"/>
      <point x="105" y="757"/>
      <point x="105" y="736" type="curve" smooth="yes"/>
      <point x="105" y="695"/>
      <point x="133" y="670"/>
      <point x="133" y="647" type="curve" smooth="yes"/>
      <point x="133" y="619"/>
      <point x="119" y="599"/>
      <point x="91" y="599" type="curve" smooth="yes"/>
      <point x="41" y="599"/>
      <point x="2" y="656"/>
      <point x="2" y="705" type="curve" smooth="yes"/>
      <point x="2" y="797"/>
      <point x="88" y="872"/>
      <point x="179" y="872" type="curve" smooth="yes"/>
      <point x="474" y="872" type="line" smooth="yes"/>
      <point x="506" y="872"/>
      <point x="515" y="858"/>
      <point x="515" y="842" type="curve" smooth="yes"/>
      <point x="515" y="824"/>
      <point x="506" y="803"/>
      <point x="502" y="787" type="curve" smooth="yes"/>
      <point x="469" y="655"/>
      <point x="373" y="494"/>
      <point x="373" y="334" type="curve" smooth="yes"/>
      <point x="373" y="251"/>
      <point x="416" y="104"/>
      <point x="546" y="104" type="curve" smooth="yes"/>
      <point x="642" y="104"/>
      <point x="767" y="226"/>
      <point x="775" y="261" type="curve" smooth="yes"/>
      <point x="775" y="261"/>
      <point x="705" y="450"/>
      <point x="705" y="546" type="curve" smooth="yes"/>
      <point x="705" y="730"/>
      <point x="775" y="891"/>
      <point x="917" y="891" type="curve" smooth="yes"/>
      <point x="1042" y="891"/>
      <point x="1069" y="735"/>
      <point x="1069" y="649" type="curve" smooth="yes"/>
      <point x="1069" y="463"/>
      <point x="920" y="259"/>
      <point x="920" y="259" type="curve" smooth="yes"/>
      <point x="951" y="175"/>
      <point x="1006" y="111"/>
      <point x="1128" y="111" type="curve" smooth="yes"/>
      <point x="1281" y="111"/>
      <point x="1371" y="261"/>
      <point x="1371" y="425" type="curve" smooth="yes"/>
      <point x="1371" y="603"/>
      <point x="1244" y="673"/>
      <point x="1244" y="802" type="curve" smooth="yes"/>
      <point x="1244" y="854"/>
      <point x="1267" y="891"/>
      <point x="1320" y="891" type="curve" smooth="yes"/>
      <point x="1459" y="891"/>
      <point x="1488" y="612"/>
      <point x="1488" y="559" type="curve" smooth="yes"/>
      <point x="1488" y="303"/>
      <point x="1341" y="-20"/>
      <point x="1108" y="-20" type="curve" smooth="yes"/>
      <point x="934" y="-20"/>
      <point x="833" y="152"/>
    </contour>
  </outline>
</glyph>
<glyph name="bar" format="1">
  <advance width="500"/>
  <unicode hex="007C"/>
  <outline>
    <contour>
      <point x="44" y="-275" type="curve" smooth="yes"/>
      <point x="44" y="303"/>
      <point x="269" y="864"/>
      <point x="400" y="1423" type="curve" smooth="yes"/>
      <point x="405" y="1446"/>
      <point x="438" y="1447"/>
      <point x="460" y="1450" type="curve"/>
      <point x="460" y="1379"/>
      <point x="458" y="1316"/>
      <point x="444" y="1248" type="curve" smooth="yes"/>
      <point x="163" y="-84" type="line"/>
      <point x="149" y="-157"/>
      <point x="167" y="-296"/>
      <point x="92" y="-296" type="curve" smooth="yes"/>
      <point x="73" y="-296"/>
      <point x="44" y="-294"/>
    </contour>
  </outline>
</glyph>
<glyph name="threesuperior" format="1">
  <advance width="762"/>
  <unicode hex="00B3"/>
  <outline>
    <contour>
      <point x="598" y="917" type="curve"/>
      <point x="709" y="928"/>
      <point x="815" y="1005"/>
      <point x="839" y="1118" type="curve" smooth="yes"/>
      <point x="864" y="1235"/>
      <point x="780" y="1294"/>
      <point x="672" y="1294" type="curve" smooth="yes"/>
      <point x="584" y="1294"/>
      <point x="470" y="1254"/>
      <point x="402" y="1180" type="curve"/>
      <point x="400" y="1176"/>
      <point x="398" y="1172"/>
      <point x="397" y="1168" type="curve" smooth="yes"/>
      <point x="395" y="1159"/>
      <point x="396" y="1149"/>
      <point x="406" y="1149" type="curve" smooth="yes"/>
      <point x="482" y="1149"/>
      <point x="553" y="1224"/>
      <point x="639" y="1224" type="curve" smooth="yes"/>
      <point x="712" y="1224"/>
      <point x="736" y="1188"/>
      <point x="721" y="1117" type="curve" smooth="yes"/>
      <point x="700" y="1018"/>
      <point x="512" y="936"/>
      <point x="423" y="897" type="curve" smooth="yes"/>
      <point x="420" y="895"/>
      <point x="416" y="893"/>
      <point x="413" y="892" type="curve"/>
      <point x="439" y="854" type="line"/>
      <point x="464" y="859"/>
      <point x="490" y="863"/>
      <point x="515" y="863" type="curve" smooth="yes"/>
      <point x="647" y="863"/>
      <point x="678" y="755"/>
      <point x="653" y="637" type="curve" smooth="yes"/>
      <point x="627" y="516"/>
      <point x="533" y="414"/>
      <point x="404" y="414" type="curve" smooth="yes"/>
      <point x="375" y="414"/>
      <point x="288" y="432"/>
      <point x="297" y="471" type="curve" smooth="yes"/>
      <point x="301" y="491"/>
      <point x="320" y="510"/>
      <point x="325" y="533" type="curve" smooth="yes"/>
      <point x="332" y="568"/>
      <point x="305" y="600"/>
      <point x="271" y="600" type="curve" smooth="yes"/>
      <point x="229" y="600"/>
      <point x="185" y="563"/>
      <point x="176" y="521" type="curve" smooth="yes"/>
      <point x="151" y="400"/>
      <point x="322" y="372"/>
      <point x="414" y="372" type="curve" smooth="yes"/>
      <point x="573" y="372"/>
      <point x="780" y="457"/>
      <point x="819" y="640" type="curve" smooth="yes"/>
      <point x="854" y="806"/>
      <point x="763" y="917"/>
    </contour>
  </outline>
</glyph>
<glyph name="periodcentered" format="1">
  <advance width="525"/>
  <unicode hex="00B7"/>
  <outline>
    <contour>
      <point x="134" y="609" type="curve" smooth="yes"/>
      <point x="134" y="700"/>
      <point x="198" y="743"/>
      <point x="262" y="743" type="curve" smooth="yes"/>
      <point x="328" y="743"/>
      <point x="391" y="700"/>
      <point x="391" y="609" type="curve" smooth="yes"/>
      <point x="391" y="519"/>
      <point x="328" y="476"/>
      <point x="262" y="476" type="curve" smooth="yes"/>
      <point x="198" y="476"/>
      <point x="134" y="519"/>
    </contour>
  </outline>
</glyph>
<glyph name="AE" format="1">
  <advance width="1887"/>
  <unicode hex="00C6"/>
  <outline>
    <contour>
      <point x="642" y="555" type="line"/>
      <point x="974" y="555" type="line"/>
      <point x="1181" y="1063" type="line"/>
      <point x="1119" y="1063" type="line"/>
    </contour>
    <contour>
      <point x="958" y="1064" type="curve"/>
      <point x="956" y="1066" type="line"/>
      <point x="956" y="1113"/>
      <point x="900" y="1135"/>
      <point x="842" y="1139" type="curve"/>
      <point x="858" y="1208" type="line"/>
      <point x="1995" y="1208" type="line"/>
      <point x="1934" y="929" type="line" smooth="yes"/>
      <point x="1932" y="922"/>
      <point x="1898" y="894"/>
      <point x="1869" y="894" type="curve" smooth="yes"/>
      <point x="1849" y="894"/>
      <point x="1838" y="901"/>
      <point x="1837" y="918" type="curve" smooth="yes"/>
      <point x="1829" y="1051"/>
      <point x="1824" y="1140"/>
      <point x="1717" y="1140" type="curve" smooth="yes"/>
      <point x="1422" y="1140" type="line" smooth="yes"/>
      <point x="1397" y="1140"/>
      <point x="1366" y="1130"/>
      <point x="1342" y="1069" type="curve" smooth="yes"/>
      <point x="1204" y="722" type="line"/>
      <point x="1489" y="722" type="line" smooth="yes"/>
      <point x="1599" y="722"/>
      <point x="1626" y="838"/>
      <point x="1657" y="838" type="curve" smooth="yes"/>
      <point x="1719" y="838" type="line"/>
      <point x="1635" y="508" type="line"/>
      <point x="1581" y="508" type="line"/>
      <point x="1577" y="546"/>
      <point x="1561" y="661"/>
      <point x="1483" y="661" type="curve" smooth="yes"/>
      <point x="1181" y="661" type="line"/>
      <point x="993" y="184" type="line" smooth="yes"/>
      <point x="985" y="163"/>
      <point x="984" y="150"/>
      <point x="983" y="140" type="curve"/>
      <point x="983" y="138" type="line" smooth="yes"/>
      <point x="983" y="103"/>
      <point x="1014" y="100"/>
      <point x="1027" y="100" type="curve" smooth="yes"/>
      <point x="1332" y="100" type="line" smooth="yes"/>
      <point x="1469" y="100"/>
      <point x="1559" y="185"/>
      <point x="1610" y="306" type="curve" smooth="yes"/>
      <point x="1618" y="325"/>
      <point x="1667" y="348"/>
      <point x="1702" y="348" type="curve" smooth="yes"/>
      <point x="1726" y="348"/>
      <point x="1734" y="339"/>
      <point x="1734" y="329" type="curve" smooth="yes"/>
      <point x="1734" y="326"/>
      <point x="1733" y="323"/>
      <point x="1733" y="323" type="curve"/>
      <point x="1606" y="29" type="line"/>
      <point x="639" y="29" type="line"/>
      <point x="672" y="99" type="line"/>
      <point x="737" y="100"/>
      <point x="799" y="116"/>
      <point x="844" y="232" type="curve" smooth="yes"/>
      <point x="944" y="491" type="line"/>
      <point x="571" y="491" type="line"/>
      <point x="327" y="231" type="line" smooth="yes"/>
      <point x="306" y="208"/>
      <point x="280" y="188"/>
      <point x="280" y="155" type="curve" smooth="yes"/>
      <point x="280" y="113"/>
      <point x="324" y="101"/>
      <point x="393" y="99" type="curve"/>
      <point x="374" y="28" type="line"/>
      <point x="-110" y="28" type="line"/>
      <point x="-84" y="98" type="line"/>
      <point x="-16" y="99"/>
      <point x="53" y="115"/>
      <point x="158" y="222" type="curve" smooth="yes"/>
      <point x="934" y="1014" type="line" smooth="yes"/>
      <point x="949" y="1030"/>
      <point x="958" y="1046"/>
    </contour>
  </outline>
</glyph>
<glyph name="Eth" format="1">
  <advance width="1359"/>
  <unicode hex="00D0"/>
  <outline>
    <contour>
      <point x="81" y="610" type="line"/>
      <point x="88" y="651"/>
      <point x="105" y="725"/>
      <point x="116" y="725" type="curve" smooth="yes"/>
      <point x="274" y="725" type="line"/>
      <point x="313" y="897"/>
      <point x="346" y="1054"/>
      <point x="346" y="1094" type="curve" smooth="yes"/>
      <point x="346" y="1225"/>
      <point x="176" y="1159"/>
      <point x="176" y="1209" type="curve" smooth="yes"/>
      <point x="176" y="1228"/>
      <point x="184" y="1250"/>
      <point x="197" y="1264" type="curve"/>
      <point x="756" y="1264" type="line" smooth="yes"/>
      <point x="1047" y="1264"/>
      <point x="1302" y="1067"/>
      <point x="1302" y="762" type="curve" smooth="yes"/>
      <point x="1302" y="399"/>
      <point x="1024" y="0"/>
      <point x="635" y="0" type="curve" smooth="yes"/>
      <point x="-53" y="0" type="line" smooth="yes"/>
      <point x="-60" y="0"/>
      <point x="-60" y="16"/>
      <point x="-60" y="18" type="curve" smooth="yes"/>
      <point x="-60" y="31"/>
      <point x="-50" y="73"/>
      <point x="-37" y="73" type="curve" smooth="yes"/>
      <point x="65" y="73"/>
      <point x="131" y="104"/>
      <point x="155" y="213" type="curve" smooth="yes"/>
      <point x="168" y="272"/>
      <point x="208" y="437"/>
      <point x="248" y="610" type="curve"/>
    </contour>
    <contour>
      <point x="614" y="74" type="line" smooth="yes"/>
      <point x="934" y="74"/>
      <point x="1105" y="576"/>
      <point x="1105" y="836" type="curve" smooth="yes"/>
      <point x="1105" y="1047"/>
      <point x="989" y="1213"/>
      <point x="765" y="1213" type="curve" smooth="yes"/>
      <point x="678" y="1213" type="line" smooth="yes"/>
      <point x="588" y="1213"/>
      <point x="539" y="1190"/>
      <point x="519" y="1097" type="curve" smooth="yes"/>
      <point x="439" y="725" type="line"/>
      <point x="640" y="725" type="line"/>
      <point x="632" y="685"/>
      <point x="616" y="610"/>
      <point x="603" y="610" type="curve" smooth="yes"/>
      <point x="414" y="610" type="line"/>
      <point x="300" y="74" type="line"/>
    </contour>
  </outline>
</glyph>
<glyph name="oslash" format="1">
  <advance width="959"/>
  <unicode hex="00F8"/>
  <outline>
    <contour>
      <point x="496" y="924" type="curve" smooth="yes"/>
      <point x="557" y="924"/>
      <point x="616" y="911"/>
      <point x="665" y="886" type="curve"/>
      <point x="707" y="971"/>
      <point x="796" y="1154"/>
      <point x="850" y="1185" type="curve"/>
      <point x="850" y="1184" type="line"/>
      <point x="871" y="1183"/>
      <point x="887" y="1178"/>
      <point x="900" y="1171" type="curve"/>
      <point x="848" y="1064"/>
      <point x="793" y="952"/>
      <point x="728" y="844" type="curve"/>
      <point x="828" y="764"/>
      <point x="894" y="647"/>
      <point x="894" y="476" type="curve" smooth="yes"/>
      <point x="894" y="213"/>
      <point x="689" y="-19"/>
      <point x="450" y="-19" type="curve" smooth="yes"/>
      <point x="392" y="-19"/>
      <point x="338" y="-2"/>
      <point x="288" y="23" type="curve"/>
      <point x="234" y="-85"/>
      <point x="177" y="-196"/>
      <point x="106" y="-285" type="curve" smooth="yes"/>
      <point x="99" y="-294"/>
      <point x="82" y="-288"/>
      <point x="69" y="-288" type="curve" smooth="yes"/>
      <point x="59" y="-288" type="line"/>
      <point x="62" y="-236"/>
      <point x="86" y="-187"/>
      <point x="116" y="-135" type="curve" smooth="yes"/>
      <point x="230" y="65" type="line"/>
      <point x="128" y="147"/>
      <point x="57" y="273"/>
      <point x="57" y="418" type="curve" smooth="yes"/>
      <point x="57" y="684"/>
      <point x="258" y="924"/>
    </contour>
    <contour>
      <point x="683" y="741" type="curve"/>
      <point x="564" y="520"/>
      <point x="437" y="296"/>
      <point x="320" y="77" type="curve"/>
      <point x="348" y="55"/>
      <point x="386" y="42"/>
      <point x="433" y="42" type="curve"/>
      <point x="432" y="43" type="line"/>
      <point x="592" y="43"/>
      <point x="725" y="342"/>
      <point x="725" y="565" type="curve" smooth="yes"/>
      <point x="725" y="631"/>
      <point x="710" y="692"/>
    </contour>
    <contour>
      <point x="635" y="820" type="line"/>
      <point x="607" y="842"/>
      <point x="569" y="856"/>
      <point x="525" y="856" type="curve" smooth="yes"/>
      <point x="369" y="856"/>
      <point x="231" y="548"/>
      <point x="231" y="328" type="curve" smooth="yes"/>
      <point x="231" y="258"/>
      <point x="246" y="201"/>
      <point x="273" y="152" type="curve"/>
    </contour>
  </outline>
</glyph>
<glyph name="hbar" format="1">
  <advance width="1206"/>
  <unicode hex="0127"/>
  <outline>
    <contour>
      <point x="315" y="264" type="line"/>
      <point x="409" y="426"/>
      <point x="686" y="922"/>
      <point x="879" y="922" type="curve" smooth="yes"/>
      <point x="1005" y="922"/>
      <point x="1049" y="837"/>
      <point x="1049" y="759" type="curve" smooth="yes"/>
      <point x="1049" y="569"/>
      <point x="886" y="318"/>
      <point x="886" y="158" type="curve" smooth="yes"/>
      <point x="886" y="128"/>
      <point x="893" y="91"/>
      <point x="928" y="91" type="curve" smooth="yes"/>
      <point x="994" y="91"/>
      <point x="1050" y="174"/>
      <point x="1127" y="284" type="curve" smooth="yes"/>
      <point x="1141" y="304" type="line"/>
      <point x="1171" y="279"/>
      <point x="1189" y="263"/>
      <point x="1198" y="255" type="curve"/>
      <point x="1176" y="225" type="line" smooth="yes"/>
      <point x="1062" y="70"/>
      <point x="983" y="-22"/>
      <point x="853" y="-22" type="curve" smooth="yes"/>
      <point x="767" y="-22"/>
      <point x="719" y="45"/>
      <point x="719" y="140" type="curve" smooth="yes"/>
      <point x="719" y="357"/>
      <point x="895" y="644"/>
      <point x="895" y="746" type="curve" smooth="yes"/>
      <point x="895" y="772"/>
      <point x="880" y="801"/>
      <point x="845" y="801" type="curve" smooth="yes"/>
      <point x="723" y="801"/>
      <point x="506" y="435"/>
      <point x="438" y="328" type="curve" smooth="yes"/>
      <point x="409" y="282"/>
      <point x="323" y="152"/>
      <point x="250" y="42" type="curve" smooth="yes"/>
      <point x="230" y="12"/>
      <point x="198" y="-22"/>
      <point x="167" y="-22" type="curve" smooth="yes"/>
      <point x="113" y="-22"/>
      <point x="69" y="14"/>
      <point x="69" y="83" type="curve" smooth="yes"/>
      <point x="69" y="116"/>
      <point x="78" y="149"/>
      <point x="88" y="185" type="curve" smooth="yes"/>
      <point x="299" y="963" type="line"/>
      <point x="122" y="942" type="line"/>
      <point x="129" y="1037" type="line"/>
      <point x="326" y="1061" type="line"/>
      <point x="389" y="1295" type="line"/>
      <point x="211" y="1295" type="line" smooth="yes"/>
      <point x="185" y="1295"/>
      <point x="184" y="1300"/>
      <point x="184" y="1307" type="curve" smooth="yes"/>
      <point x="184" y="1326"/>
      <point x="201" y="1375"/>
      <point x="211" y="1376" type="curve" smooth="yes"/>
      <point x="509" y="1412" type="line" smooth="yes"/>
      <point x="516" y="1413"/>
      <point x="521" y="1413"/>
      <point x="528" y="1413" type="curve" smooth="yes"/>
      <point x="556" y="1413"/>
      <point x="561" y="1408"/>
      <point x="561" y="1380" type="curve" smooth="yes"/>
      <point x="561" y="1362"/>
      <point x="557" y="1333"/>
      <point x="548" y="1298" type="curve" smooth="yes"/>
      <point x="490" y="1082" type="line"/>
      <point x="675" y="1106" type="line"/>
      <point x="668" y="1011" type="line"/>
      <point x="463" y="985" type="line"/>
      <point x="276" y="281" type="line"/>
    </contour>
  </outline>
</glyph>
<glyph name="dotlessi" format="1">
  <advance width="634"/>
  <unicode hex="0131"/>
  <outline>
    <contour>
      <point x="634" y="250" type="line"/>
      <point x="573" y="161" type="line" smooth="yes"/>
      <point x="512" y="73"/>
      <point x="429" y="-19"/>
      <point x="311" y="-19" type="curve" smooth="yes"/>
      <point x="213" y="-19"/>
      <point x="153" y="65"/>
      <point x="153" y="163" type="curve" smooth="yes"/>
      <point x="153" y="230"/>
      <point x="175" y="300"/>
      <point x="200" y="370" type="curve" smooth="yes"/>
      <point x="301" y="654" type="line"/>
      <point x="309" y="680"/>
      <point x="321" y="709"/>
      <point x="321" y="738" type="curve" smooth="yes"/>
      <point x="321" y="777"/>
      <point x="303" y="806"/>
      <point x="265" y="806" type="curve" smooth="yes"/>
      <point x="229" y="806"/>
      <point x="185" y="763"/>
      <point x="70" y="605" type="curve"/>
      <point x="18" y="644" type="line"/>
      <point x="120" y="782"/>
      <point x="204" y="893"/>
      <point x="322" y="893" type="curve" smooth="yes"/>
      <point x="434" y="893"/>
      <point x="468" y="818"/>
      <point x="468" y="723" type="curve" smooth="yes"/>
      <point x="468" y="674"/>
      <point x="458" y="621"/>
      <point x="444" y="577" type="curve" smooth="yes"/>
      <point x="339" y="254" type="line"/>
      <point x="331" y="235"/>
      <point x="323" y="198"/>
      <point x="323" y="163" type="curve" smooth="yes"/>
      <point x="323" y="134"/>
      <point x="331" y="91"/>
      <point x="377" y="91" type="curve" smooth="yes"/>
      <point x="418" y="91"/>
      <point x="461" y="132"/>
      <point x="512" y="209" type="curve" smooth="yes"/>
      <point x="569" y="295" type="line"/>
    </contour>
  </outline>
</glyph>
<glyph name="IJ" format="1">
  <advance width="1704"/>
  <unicode hex="0132"/>
  <outline>
    <contour>
      <point x="1537" y="1134" type="curve"/>
      <point x="1558" y="1182"/>
      <point x="1630" y="1347"/>
      <point x="1718" y="1347" type="curve" smooth="yes"/>
      <point x="1778" y="1347"/>
      <point x="1780" y="1300"/>
      <point x="1780" y="1284" type="curve" smooth="yes"/>
      <point x="1780" y="1185"/>
      <point x="1638" y="1161"/>
      <point x="1625" y="1091" type="curve" smooth="yes"/>
      <point x="1565" y="756" type="line"/>
      <point x="1716" y="756" type="line"/>
      <point x="1699" y="665" type="line"/>
      <point x="1556" y="665" type="line"/>
      <point x="1464" y="192" type="line"/>
      <point x="1468" y="195" type="line"/>
      <point x="1405" y="-129"/>
      <point x="1279" y="-303"/>
      <point x="1027" y="-303" type="curve" smooth="yes"/>
      <point x="935" y="-303"/>
      <point x="761" y="-265"/>
      <point x="757" y="-168" type="curve"/>
      <point x="757" y="-166" type="line" smooth="yes"/>
      <point x="757" y="-117"/>
      <point x="794" y="-94"/>
      <point x="837" y="-94" type="curve" smooth="yes"/>
      <point x="904" y="-94"/>
      <point x="983" y="-217"/>
      <point x="1067" y="-217" type="curve" smooth="yes"/>
      <point x="1162" y="-217"/>
      <point x="1223" y="-132"/>
      <point x="1265" y="70" type="curve" smooth="yes"/>
      <point x="1389" y="668" type="line"/>
      <point x="1190" y="668" type="line"/>
      <point x="1206" y="762" type="line"/>
      <point x="1416" y="762" type="line"/>
      <point x="1482" y="1086" type="line"/>
      <point x="1406" y="1090"/>
      <point x="1344" y="1092"/>
      <point x="1294" y="1142" type="curve" smooth="yes"/>
      <point x="1183" y="1252" type="line" smooth="yes"/>
      <point x="1164" y="1270"/>
      <point x="1142" y="1278"/>
      <point x="1121" y="1278" type="curve" smooth="yes"/>
      <point x="1063" y="1278"/>
      <point x="1015" y="1214"/>
      <point x="1015" y="1139" type="curve" smooth="yes"/>
      <point x="1015" y="1056"/>
      <point x="1164" y="1145"/>
      <point x="1164" y="1037" type="curve" smooth="yes"/>
      <point x="1164" y="981"/>
      <point x="1133" y="948"/>
      <point x="1078" y="948" type="curve" smooth="yes"/>
      <point x="992" y="948"/>
      <point x="956" y="1052"/>
      <point x="956" y="1117" type="curve" smooth="yes"/>
      <point x="956" y="1248"/>
      <point x="1055" y="1358"/>
      <point x="1186" y="1358" type="curve" smooth="yes"/>
      <point x="1254" y="1358"/>
      <point x="1317" y="1330"/>
      <point x="1358" y="1277" type="curve"/>
      <point x="1358" y="1275" type="line"/>
      <point x="1477" y="1147"/>
      <point x="1491" y="1149"/>
    </contour>
    <contour>
      <point x="-71" y="45" type="curve"/>
      <point x="-72" y="45" type="line"/>
      <point x="-72" y="73"/>
      <point x="-56" y="98"/>
      <point x="-52" y="98" type="curve" smooth="yes"/>
      <point x="26" y="98"/>
      <point x="101" y="107"/>
      <point x="130" y="231" type="curve" smooth="yes"/>
      <point x="311" y="1017" type="line" smooth="yes"/>
      <point x="314" y="1032"/>
      <point x="316" y="1044"/>
      <point x="316" y="1057" type="curve" smooth="yes"/>
      <point x="316" y="1123"/>
      <point x="257" y="1133"/>
      <point x="164" y="1137" type="curve" smooth="yes"/>
      <point x="160" y="1137"/>
      <point x="160" y="1149"/>
      <point x="160" y="1165" type="curve" smooth="yes"/>
      <point x="160" y="1195"/>
      <point x="169" y="1207"/>
      <point x="175" y="1207" type="curve" smooth="yes"/>
      <point x="664" y="1207" type="line" smooth="yes"/>
      <point x="667" y="1207"/>
      <point x="671" y="1207"/>
      <point x="671" y="1189" type="curve" smooth="yes"/>
      <point x="671" y="1162"/>
      <point x="656" y="1137"/>
      <point x="652" y="1137" type="curve" smooth="yes"/>
      <point x="576" y="1137"/>
      <point x="503" y="1128"/>
      <point x="475" y="1004" type="curve" smooth="yes"/>
      <point x="295" y="217" type="line" smooth="yes"/>
      <point x="292" y="204"/>
      <point x="290" y="192"/>
      <point x="290" y="180" type="curve" smooth="yes"/>
      <point x="290" y="107"/>
      <point x="362" y="101"/>
      <point x="442" y="97" type="curve" smooth="yes"/>
      <point x="446" y="97"/>
      <point x="446" y="85"/>
      <point x="446" y="69" type="curve" smooth="yes"/>
      <point x="446" y="39"/>
      <point x="437" y="27"/>
      <point x="431" y="27" type="curve" smooth="yes"/>
      <point x="-64" y="27" type="line" smooth="yes"/>
      <point x="-67" y="27"/>
      <point x="-71" y="27"/>
    </contour>
  </outline>
</glyph>
<glyph name="Lslash" format="1">
  <advance width="997"/>
  <unicode hex="0141"/>
  <outline>
    <contour>
      <point x="756" y="969" type="line"/>
      <point x="775" y="968"/>
      <point x="803" y="959"/>
      <point x="803" y="951" type="curve" smooth="yes"/>
      <point x="803" y="932"/>
      <point x="673" y="872"/>
      <point x="652" y="862" type="curve" smooth="yes"/>
      <point x="53" y="612" type="line" smooth="yes"/>
      <point x="50" y="611"/>
      <point x="47" y="610"/>
      <point x="44" y="610" type="curve" smooth="yes"/>
      <point x="32" y="610"/>
      <point x="18" y="621"/>
      <point x="12" y="637" type="curve"/>
    </contour>
    <component base="L"/>
  </outline>
</glyph>
<glyph name="lslash" format="1">
  <advance width="585"/>
  <unicode hex="0142"/>
  <outline>
    <contour>
      <point x="636" y="969" type="line"/>
      <point x="655" y="968"/>
      <point x="683" y="959"/>
      <point x="683" y="951" type="curve" smooth="yes"/>
      <point x="683" y="932"/>
      <point x="553" y="872"/>
      <point x="532" y="862" type="curve" smooth="yes"/>
      <point x="3" y="612" type="line" smooth="yes"/>
      <point x="0" y="611"/>
      <point x="-3" y="610"/>
      <point x="-6" y="610" type="curve" smooth="yes"/>
      <point x="-18" y="610"/>
      <point x="-32" y="621"/>
      <point x="-38" y="637" type="curve"/>
    </contour>
    <component base="l"/>
  </outline>
</glyph>
<glyph name="oe" format="1">
  <advance width="1549"/>
  <unicode hex="0153"/>
  <outline>
    <contour>
      <point x="884" y="421" type="curve"/>
      <point x="898" y="420"/>
      <point x="902" y="419"/>
      <point x="921" y="419" type="curve"/>
      <point x="922" y="420" type="line"/>
      <point x="1035" y="420"/>
      <point x="1312" y="499"/>
      <point x="1312" y="678" type="curve" smooth="yes"/>
      <point x="1312" y="763"/>
      <point x="1254" y="835"/>
      <point x="1184" y="835" type="curve" smooth="yes"/>
      <point x="991" y="835"/>
      <point x="894" y="586"/>
    </contour>
    <contour>
      <point x="444" y="38" type="curve" smooth="yes"/>
      <point x="445" y="38" type="line" smooth="yes"/>
      <point x="600" y="38"/>
      <point x="719" y="338"/>
      <point x="719" y="560" type="curve" smooth="yes"/>
      <point x="719" y="695"/>
      <point x="674" y="828"/>
      <point x="543" y="828" type="curve" smooth="yes"/>
      <point x="378" y="828"/>
      <point x="235" y="520"/>
      <point x="235" y="300" type="curve" smooth="yes"/>
      <point x="235" y="155"/>
      <point x="294" y="38"/>
    </contour>
    <contour>
      <point x="1480" y="639" type="curve" smooth="yes"/>
      <point x="1480" y="392"/>
      <point x="1054" y="359"/>
      <point x="883" y="348" type="curve"/>
      <point x="883" y="332" type="line" smooth="yes"/>
      <point x="883" y="327"/>
      <point x="882" y="319"/>
      <point x="882" y="310" type="curve" smooth="yes"/>
      <point x="882" y="198"/>
      <point x="966" y="75"/>
      <point x="1090" y="75" type="curve" smooth="yes"/>
      <point x="1247" y="75"/>
      <point x="1337" y="180"/>
      <point x="1416" y="279" type="curve"/>
      <point x="1435" y="269"/>
      <point x="1466" y="249"/>
      <point x="1484" y="237" type="curve"/>
      <point x="1387" y="101"/>
      <point x="1245" y="-24"/>
      <point x="1071" y="-24" type="curve" smooth="yes"/>
      <point x="955" y="-24"/>
      <point x="848" y="35"/>
      <point x="782" y="128" type="curve" smooth="yes"/>
      <point x="770" y="145" type="line"/>
      <point x="757" y="129" type="line"/>
      <point x="678" y="36"/>
      <point x="569" y="-23"/>
      <point x="446" y="-23" type="curve" smooth="yes"/>
      <point x="241" y="-23"/>
      <point x="64" y="168"/>
      <point x="64" y="398" type="curve" smooth="yes"/>
      <point x="64" y="656"/>
      <point x="265" y="889"/>
      <point x="515" y="889" type="curve" smooth="yes"/>
      <point x="644" y="889"/>
      <point x="753" y="832"/>
      <point x="820" y="731" type="curve" smooth="yes"/>
      <point x="832" y="713" type="line"/>
      <point x="846" y="729" type="line" smooth="yes"/>
      <point x="933" y="828"/>
      <point x="1056" y="890"/>
      <point x="1194" y="890" type="curve" smooth="yes"/>
      <point x="1324" y="890"/>
      <point x="1480" y="811"/>
    </contour>
  </outline>
</glyph>
<glyph name="circumflex" format="1">
  <advance width="825"/>
  <unicode hex="02C6"/>
  <outline>
    <contour>
      <point x="427" y="872" type="move" name="_top"/>
    </contour>
    <contour>
      <point x="750" y="974" type="line"/>
      <point x="572" y="1244" type="line"/>
      <point x="266" y="978" type="line"/>
      <point x="249" y="994" type="line"/>
      <point x="319" y="1095"/>
      <point x="491" y="1333"/>
      <point x="515" y="1365" type="curve" smooth="yes"/>
      <point x="538" y="1395"/>
      <point x="572" y="1422"/>
      <point x="601" y="1422" type="curve" smooth="yes"/>
      <point x="629" y="1422"/>
      <point x="647" y="1398"/>
      <point x="657" y="1369" type="curve" smooth="yes"/>
      <point x="668" y="1337"/>
      <point x="744" y="1079"/>
      <point x="769" y="986" type="curve"/>
    </contour>
  </outline>
</glyph>
<glyph name="hungarumlaut" format="1">
  <advance width="566"/>
  <unicode hex="02DD"/>
  <outline>
    <contour>
      <point x="167" y="872" type="move" name="_top"/>
    </contour>
    <contour>
      <point x="418" y="1337" type="curve" smooth="yes"/>
      <point x="334" y="1244"/>
      <point x="187" y="1071"/>
      <point x="133" y="1012" type="curve" smooth="yes"/>
      <point x="123" y="1001"/>
      <point x="110" y="997"/>
      <point x="107" y="997" type="curve" smooth="yes"/>
      <point x="102" y="997"/>
      <point x="96" y="1001"/>
      <point x="96" y="1011" type="curve" smooth="yes"/>
      <point x="96" y="1015"/>
      <point x="98" y="1024"/>
      <point x="99" y="1028" type="curve" smooth="yes"/>
      <point x="158" y="1139"/>
      <point x="259" y="1324"/>
      <point x="306" y="1411" type="curve" smooth="yes"/>
      <point x="316" y="1430"/>
      <point x="328" y="1436"/>
      <point x="344" y="1436" type="curve" smooth="yes"/>
      <point x="381" y="1436"/>
      <point x="426" y="1390"/>
      <point x="426" y="1358" type="curve" smooth="yes"/>
      <point x="426" y="1349"/>
      <point x="425" y="1344"/>
    </contour>
    <contour>
      <point x="645" y="1337" type="curve" smooth="yes"/>
      <point x="555" y="1244"/>
      <point x="398" y="1071"/>
      <point x="340" y="1012" type="curve" smooth="yes"/>
      <point x="330" y="1001"/>
      <point x="317" y="997"/>
      <point x="314" y="997" type="curve" smooth="yes"/>
      <point x="309" y="997"/>
      <point x="303" y="1001"/>
      <point x="303" y="1011" type="curve" smooth="yes"/>
      <point x="303" y="1015"/>
      <point x="305" y="1024"/>
      <point x="306" y="1028" type="curve"/>
      <point x="371" y="1139"/>
      <point x="482" y="1324"/>
      <point x="533" y="1411" type="curve" smooth="yes"/>
      <point x="542" y="1430"/>
      <point x="555" y="1436"/>
      <point x="571" y="1436" type="curve" smooth="yes"/>
      <point x="607" y="1436"/>
      <point x="653" y="1390"/>
      <point x="653" y="1358" type="curve" smooth="yes"/>
      <point x="653" y="1349"/>
      <point x="652" y="1344"/>
    </contour>
  </outline>
</glyph>
<glyph name="endash" format="1">
  <advance width="1069"/>
  <unicode hex="2013"/>
  <outline>
    <contour>
      <point x="160" y="452" type="line" smooth="yes"/>
      <point x="144" y="452"/>
      <point x="132" y="469"/>
      <point x="132" y="490" type="curve"/>
      <point x="205" y="506"/>
      <point x="275" y="507"/>
      <point x="347" y="507" type="curve" smooth="yes"/>
      <point x="906" y="507" type="line"/>
      <point x="930" y="496"/>
      <point x="937" y="488"/>
      <point x="937" y="470" type="curve" smooth="yes"/>
      <point x="937" y="452"/>
      <point x="795" y="452"/>
      <point x="772" y="452" type="curve" smooth="yes"/>
    </contour>
  </outline>
</glyph>
<glyph name="emdash" format="1">
  <advance width="1785"/>
  <unicode hex="2014"/>
  <outline>
    <contour>
      <point x="130" y="488" type="curve"/>
      <point x="247" y="506"/>
      <point x="358" y="508"/>
      <point x="472" y="508" type="curve" smooth="yes"/>
      <point x="1628" y="508" type="line"/>
      <point x="1649" y="499"/>
      <point x="1656" y="489"/>
      <point x="1656" y="470" type="curve"/>
      <point x="1542" y="452"/>
      <point x="1429" y="452"/>
      <point x="1315" y="452" type="curve" smooth="yes"/>
      <point x="159" y="452" type="line" smooth="yes"/>
      <point x="142" y="452"/>
      <point x="131" y="467"/>
    </contour>
  </outline>
</glyph>
<glyph name="quotesinglbase" format="1">
  <advance width="535"/>
  <unicode hex="201A"/>
  <outline>
    <contour>
      <point x="160" y="-208" type="curve"/>
      <point x="92" y="-122" type="line"/>
      <point x="154" y="-81"/>
      <point x="192" y="-62"/>
      <point x="192" y="1" type="curve" smooth="yes"/>
      <point x="192" y="39"/>
      <point x="144" y="112"/>
      <point x="144" y="149" type="curve" smooth="yes"/>
      <point x="144" y="188"/>
      <point x="184" y="226"/>
      <point x="238" y="226" type="curve" smooth="yes"/>
      <point x="312" y="226"/>
      <point x="366" y="163"/>
      <point x="366" y="72" type="curve" smooth="yes"/>
      <point x="366" y="-40"/>
      <point x="259" y="-148"/>
    </contour>
  </outline>
</glyph>
<glyph name="dagger" format="1">
  <advance width="567"/>
  <unicode hex="2020"/>
  <outline>
    <contour>
      <point x="43" y="360" type="line"/>
      <point x="50" y="401"/>
      <point x="67" y="475"/>
      <point x="78" y="475" type="curve" smooth="yes"/>
      <point x="167" y="475" type="line"/>
      <point x="243" y="793"/>
      <point x="346" y="1108"/>
      <point x="420" y="1423" type="curve" smooth="yes"/>
      <point x="425" y="1446"/>
      <point x="458" y="1447"/>
      <point x="480" y="1450" type="curve"/>
      <point x="480" y="1379"/>
      <point x="478" y="1316"/>
      <point x="464" y="1248" type="curve" smooth="yes"/>
      <point x="301" y="475" type="line"/>
      <point x="502" y="475" type="line"/>
      <point x="494" y="435"/>
      <point x="478" y="360"/>
      <point x="465" y="360" type="curve" smooth="yes"/>
      <point x="277" y="360" type="line"/>
      <point x="183" y="-84" type="line"/>
      <point x="169" y="-157"/>
      <point x="187" y="-296"/>
      <point x="112" y="-296" type="curve" smooth="yes"/>
      <point x="93" y="-296"/>
      <point x="64" y="-294"/>
      <point x="64" y="-275" type="curve" smooth="yes"/>
      <point x="64" y="-61"/>
      <point x="95" y="150"/>
      <point x="140" y="360" type="curve"/>
    </contour>
  </outline>
</glyph>
<glyph name="ellipsis" format="1">
  <advance width="1571"/>
  <unicode hex="2026"/>
  <outline>
    <contour>
      <point x="1150" y="130" type="curve" smooth="yes"/>
      <point x="1150" y="221"/>
      <point x="1214" y="264"/>
      <point x="1278" y="264" type="curve" smooth="yes"/>
      <point x="1344" y="264"/>
      <point x="1407" y="221"/>
      <point x="1407" y="130" type="curve" smooth="yes"/>
      <point x="1407" y="40"/>
      <point x="1344" y="-3"/>
      <point x="1278" y="-3" type="curve" smooth="yes"/>
      <point x="1214" y="-3"/>
      <point x="1150" y="40"/>
    </contour>
    <contour>
      <point x="631" y="130" type="curve" smooth="yes"/>
      <point x="631" y="221"/>
      <point x="695" y="264"/>
      <point x="759" y="264" type="curve" smooth="yes"/>
      <point x="825" y="264"/>
      <point x="888" y="221"/>
      <point x="888" y="130" type="curve" smooth="yes"/>
      <point x="888" y="40"/>
      <point x="825" y="-3"/>
      <point x="759" y="-3" type="curve" smooth="yes"/>
      <point x="695" y="-3"/>
      <point x="631" y="40"/>
    </contour>
    <contour>
      <point x="112" y="130" type="curve" smooth="yes"/>
      <point x="112" y="221"/>
      <point x="176" y="264"/>
      <point x="240" y="264" type="curve" smooth="yes"/>
      <point x="306" y="264"/>
      <point x="369" y="221"/>
      <point x="369" y="130" type="curve" smooth="yes"/>
      <point x="369" y="40"/>
      <point x="306" y="-3"/>
      <point x="240" y="-3" type="curve" smooth="yes"/>
      <point x="176" y="-3"/>
      <point x="112" y="40"/>
    </contour>
  </outline>
</glyph>
<glyph name="guilsinglleft" format="1">
  <advance width="577"/>
  <unicode hex="2039"/>
  <outline>
    <contour>
      <point x="480" y="882" type="curve" smooth="yes"/>
      <point x="214" y="535" type="line"/>
      <point x="329" y="180" type="line" smooth="yes"/>
      <point x="336" y="158"/>
      <point x="346" y="135"/>
      <point x="341" y="117" type="curve" smooth="yes"/>
      <point x="339" y="108"/>
      <point x="327" y="106"/>
      <point x="320" y="106" type="curve" smooth="yes"/>
      <point x="299" y="106"/>
      <point x="295" y="131"/>
      <point x="280" y="158" type="curve" smooth="yes"/>
      <point x="72" y="530" type="line"/>
      <point x="215" y="671"/>
      <point x="299" y="955"/>
      <point x="500" y="955" type="curve" smooth="yes"/>
      <point x="514" y="955"/>
      <point x="519" y="949"/>
      <point x="523" y="945" type="curve"/>
      <point x="509" y="922"/>
      <point x="493" y="899"/>
    </contour>
  </outline>
</glyph>
<glyph name="fraction" format="1">
  <advance width="800"/>
  <unicode hex="2044"/>
  <outline>
    <contour>
      <point x="841" y="1372" type="curve"/>
      <point x="637" y="962"/>
      <point x="333" y="512"/>
      <point x="106" y="98" type="curve" smooth="yes"/>
      <point x="79" y="49"/>
      <point x="49" y="-11"/>
      <point x="14" y="-49" type="curve" smooth="yes"/>
      <point x="6" y="-58"/>
      <point x="-10" y="-52"/>
      <point x="-23" y="-52" type="curve" smooth="yes"/>
      <point x="-33" y="-52" type="line"/>
      <point x="-29" y="0"/>
      <point x="-6" y="50"/>
      <point x="24" y="101" type="curve" smooth="yes"/>
      <point x="601" y="1081" type="line" smooth="yes"/>
      <point x="643" y="1153"/>
      <point x="723" y="1385"/>
      <point x="791" y="1385" type="curve" smooth="yes"/>
      <point x="812" y="1385"/>
      <point x="827" y="1380"/>
    </contour>
  </outline>
</glyph>
<glyph name="trademark" format="1">
  <advance width="1936"/>
  <unicode hex="2122"/>
  <outline>
    <contour>
      <point x="1097" y="1289" type="line"/>
      <point x="1091" y="1264" type="line"/>
      <point x="1184" y="1225"/>
      <point x="1212" y="1268"/>
      <point x="1186" y="1146" type="curve" smooth="yes"/>
      <point x="1088" y="685" type="line" smooth="yes"/>
      <point x="1057" y="537"/>
      <point x="1044" y="594"/>
      <point x="934" y="552" type="curve"/>
      <point x="930" y="528" type="line"/>
      <point x="1232" y="528" type="line"/>
      <point x="1238" y="552" type="line"/>
      <point x="1154" y="583"/>
      <point x="1111" y="546"/>
      <point x="1140" y="683" type="curve" smooth="yes"/>
      <point x="1235" y="1132" type="line"/>
      <point x="1239" y="1132" type="line"/>
      <point x="1403" y="528" type="line"/>
      <point x="1436" y="528" type="line"/>
      <point x="1857" y="1171" type="line"/>
      <point x="1751" y="670" type="line" smooth="yes"/>
      <point x="1723" y="539"/>
      <point x="1707" y="592"/>
      <point x="1605" y="552" type="curve"/>
      <point x="1601" y="528" type="line"/>
      <point x="1990" y="528" type="line"/>
      <point x="1996" y="552" type="line"/>
      <point x="1963" y="567"/>
      <point x="1888" y="557"/>
      <point x="1891" y="607" type="curve" smooth="yes"/>
      <point x="1894" y="673"/>
      <point x="1910" y="766"/>
      <point x="1931" y="861" type="curve" smooth="yes"/>
      <point x="1952" y="960"/>
      <point x="1976" y="1061"/>
      <point x="1992" y="1136" type="curve" smooth="yes"/>
      <point x="2021" y="1274"/>
      <point x="2033" y="1226"/>
      <point x="2139" y="1264" type="curve"/>
      <point x="2143" y="1289" type="line"/>
      <point x="1878" y="1289" type="line"/>
      <point x="1508" y="719" type="line"/>
      <point x="1354" y="1289" type="line"/>
    </contour>
    <contour>
      <point x="279" y="1097" type="line"/>
      <point x="301" y="1096" type="line"/>
      <point x="348" y="1185"/>
      <point x="429" y="1242"/>
      <point x="523" y="1242" type="curve" smooth="yes"/>
      <point x="547" y="1242"/>
      <point x="570" y="1241"/>
      <point x="591" y="1241" type="curve"/>
      <point x="473" y="684" type="line" smooth="yes"/>
      <point x="439" y="523"/>
      <point x="424" y="605"/>
      <point x="328" y="552" type="curve"/>
      <point x="323" y="528" type="line"/>
      <point x="709" y="528" type="line"/>
      <point x="715" y="552" type="line"/>
      <point x="634" y="601"/>
      <point x="593" y="527"/>
      <point x="626" y="683" type="curve" smooth="yes"/>
      <point x="744" y="1241" type="line"/>
      <point x="808" y="1241" type="line" smooth="yes"/>
      <point x="956" y="1241"/>
      <point x="939" y="1216"/>
      <point x="977" y="1096" type="curve"/>
      <point x="1001" y="1097" type="line"/>
      <point x="1020" y="1301" type="line"/>
      <point x="936" y="1290" type="line"/>
      <point x="431" y="1290" type="line" smooth="yes"/>
      <point x="418" y="1290"/>
      <point x="376" y="1301"/>
      <point x="342" y="1301" type="curve"/>
    </contour>
  </outline>
</glyph>
<glyph name="foundryicon" format="1">
  <advance width="1239"/>
  <outline>
    <contour>
      <point x="794" y="832" type="line"/>
      <point x="854" y="828"/>
      <point x="916" y="825"/>
      <point x="977" y="825" type="curve" smooth="yes"/>
      <point x="1002" y="825"/>
      <point x="1060" y="832"/>
      <point x="1147" y="832" type="curve" smooth="yes"/>
      <point x="1197" y="832"/>
      <point x="1227" y="822"/>
      <point x="1232" y="815" type="curve"/>
      <point x="1217" y="801"/>
      <point x="1153" y="767"/>
      <point x="1126" y="749" type="curve" smooth="yes"/>
      <point x="1021" y="676"/>
      <point x="929" y="593"/>
      <point x="829" y="534" type="curve" smooth="yes"/>
      <point x="805" y="520"/>
      <point x="819" y="471"/>
      <point x="819" y="440" type="curve" smooth="yes"/>
      <point x="819" y="353"/>
      <point x="840" y="269"/>
      <point x="840" y="188" type="curve" smooth="yes"/>
      <point x="840" y="138"/>
      <point x="835" y="89"/>
      <point x="810" y="89" type="curve" smooth="yes"/>
      <point x="782" y="89"/>
      <point x="673" y="392"/>
      <point x="536" y="392" type="curve" smooth="yes"/>
      <point x="485" y="392"/>
      <point x="196" y="129"/>
      <point x="141" y="129" type="curve" smooth="yes"/>
      <point x="130" y="129"/>
      <point x="131" y="130"/>
      <point x="131" y="133" type="curve" smooth="yes"/>
      <point x="131" y="136" type="line"/>
      <point x="150" y="212"/>
      <point x="323" y="452"/>
      <point x="337" y="514" type="curve"/>
      <point x="337" y="518" type="line" smooth="yes"/>
      <point x="337" y="563"/>
      <point x="181" y="719"/>
      <point x="157" y="745" type="curve" smooth="yes"/>
      <point x="125" y="779"/>
      <point x="65" y="802"/>
      <point x="65" y="830" type="curve" smooth="yes"/>
      <point x="65" y="847"/>
      <point x="76" y="852"/>
      <point x="94" y="852" type="curve" smooth="yes"/>
      <point x="163" y="852"/>
      <point x="235" y="833"/>
      <point x="310" y="830" type="curve" smooth="yes"/>
      <point x="509" y="822" type="line"/>
      <point x="657" y="1065" type="line" smooth="yes"/>
      <point x="684" y="1109"/>
      <point x="747" y="1217"/>
      <point x="779" y="1217" type="curve" smooth="yes"/>
      <point x="784" y="1217"/>
      <point x="801" y="1203"/>
      <point x="801" y="1194" type="curve" smooth="yes"/>
      <point x="801" y="1191"/>
      <point x="800" y="1191"/>
      <point x="800" y="1188" type="curve" smooth="yes"/>
      <point x="791" y="1141"/>
      <point x="788" y="1086"/>
      <point x="788" y="1037" type="curve" smooth="yes"/>
      <point x="788" y="972"/>
      <point x="794" y="907"/>
      <point x="794" y="847" type="curve" smooth="yes"/>
    </contour>
  </outline>
</glyph>
